<svg xmlns="http://www.w3.org/2000/svg" width="124.539" height="36" viewBox="0 0 124.539 36"><defs><style>.a{fill:#2ea110;}.b,.c{fill:#fff;}.c{stroke:#fff;stroke-miterlimit:10;stroke-width:0.25px;}</style></defs><g transform="translate(-45.234 -10.88)"><circle class="a" cx="16.865" cy="16.865" r="16.865" transform="translate(45.911 12.039)"/><path class="a" d="M90.947,67.308c.062-.285-.086.1-.223.394a.778.778,0,0,1-.168.291c-.034,0-.031-.082.021-.384-.082.2-.171.452-.261.74-.041.144-.082.3-.127.452s-.1.319-.144.483a11.017,11.017,0,0,1-.668,1.806c-.147,0-.178-.24-.291-.274-.058,0-.137,0-.261.158a6.62,6.62,0,0,0-.569.751c-.168.261-.291.463-.377.62a1.876,1.876,0,0,0-.178.343.279.279,0,0,0,.041.3c.1.123.267.247-.394,1.176a15.455,15.455,0,0,0,.946-1.244,8.261,8.261,0,0,1-2,2.989,17.952,17.952,0,0,1-1.676,1.539c-.6.47-1.2.919-1.762,1.3a15.7,15.7,0,0,1-2.917.874c-1.028.219-2.057.435-3.291.761.13-.072.713-.305.559-.415a3.856,3.856,0,0,0-.86.117c-.315.062-.624.161-.857.209-.627.233-.531.343-.322.4s.521.123.285.271a11.635,11.635,0,0,1-1.714.37,6.774,6.774,0,0,1-.974.055,3.7,3.7,0,0,1-.538-.027c-.2-.027-.377-.051-.576-.086a9.553,9.553,0,0,1-.953-.394c-.312-.141-.614-.295-.915-.446a2.4,2.4,0,0,1-1.162.069,6.462,6.462,0,0,1-1.344-.411c-.95-.394-1.978-.974-3.181-1.543a5.74,5.74,0,0,0-1.508-1.141c-.679-.456-1.316-.974-1.371-1.3-.452-.422-.305-.644-.113-.874s.425-.466.213-.9c-.449-.686-.223-.5,0-.322.11.089.223.168.247.151s-.041-.134-.247-.476a1.714,1.714,0,0,1,.5.686,1.3,1.3,0,0,1,0,.5c-.024.322,0,.751.977,1.464v-.182a13.676,13.676,0,0,1,1.471,1.028,4.966,4.966,0,0,0,.761.473,1.371,1.371,0,0,0,.686.175l.363.209c.11.058.2.106.274.154a1.508,1.508,0,0,1,.295.216c.1.113.031.165-.086.206-.223.079-.631.113-.093.528a5.162,5.162,0,0,1,.932.134l.614.11c.213.038.432.058.644.089a5.682,5.682,0,0,0,.617.051H69.8c.312-.031.528-.089.572-.2l-.487-.086c-.161-.031-.322-.072-.483-.106-.322-.069-.638-.161-.953-.25.312.075.1-.089.237-.093a2.43,2.43,0,0,0,1.285.305,7.512,7.512,0,0,0,.785-.031l.747-.093a4.456,4.456,0,0,1,1.059-.11c.2.034.24.178,0,.521a1.937,1.937,0,0,1-.264.038h-.343a1.412,1.412,0,0,0-.569.075c.034.171.4.237.881.278h.788c.274,0,.555-.024.812-.021.264-.1.528-.219.8-.343s.552-.261.85-.377a8.5,8.5,0,0,1,2.019-.61c.555-.072.3.2.86.113.189-.086.363-.175.528-.254l.459-.219c.285-.144.545-.25.775-.343s.442-.192.641-.271.391-.161.583-.237a8.093,8.093,0,0,0,1.237-.6,7.922,7.922,0,0,0,1.621-1.3,9.9,9.9,0,0,0,2.54-2.557c.744-1.028,1.34-2.112,1.95-3.085-.2.106-.082-.25.086-.686.079-.226.182-.47.264-.686s.151-.411.192-.521a4.154,4.154,0,0,0,.446-.95c.072-.226.137-.476.192-.723a4.326,4.326,0,0,0,.089-.73c-.062.538.11.226.134.617.034-.524.089-.939.134-1.268a3.722,3.722,0,0,1,.089-.435,2.057,2.057,0,0,1,.1-.343.884.884,0,0,1,.456-.562,10.013,10.013,0,0,0,.141,1.028c.048.281.089.542.13.8a4.89,4.89,0,0,1,.024.857,4.434,4.434,0,0,1-.075.542,5.907,5.907,0,0,1-.185.692Z" transform="translate(-10.309 -34.51)"/><path class="a" d="M46.755,39.579c.343.065,0-.764-.182-1.45s-.281-1.2.322-.432a11.5,11.5,0,0,0-.823-2.4c.106,1.467-.171-.343-.257.49a15.713,15.713,0,0,1-.343-6.962,16.419,16.419,0,0,1,2.519-6.273c.264-.322.545-.624.8-.932s.524-.607.792-.891c.521-.593,1.056-1.145,1.587-1.7s1.1-1.08,1.686-1.6a20.663,20.663,0,0,1,1.9-1.464c.939-.36,1.159-.278,1.107-.072a5.69,5.69,0,0,1-.49.785,17.9,17.9,0,0,1,2.232-.864,17.574,17.574,0,0,0-2.077,1.224c.031.233.991-.192,1.584-.226.2-.093.394-.175.59-.264-.2.617-1.227.967-2.4,1.484a9.356,9.356,0,0,0-3.208,2.074,6.986,6.986,0,0,0,.747-.737c.055-.093-.051-.072-.2-.021-.295.089-.737.326-.377-.123-.223.168-.439.343-.658.518.137-.123.3-.291.487-.494s.418-.422.686-.686a11.165,11.165,0,0,1,2.057-1.536,14.4,14.4,0,0,0-3.352,2.334A14.74,14.74,0,0,0,46.8,29.23c-.041-.134-.065-.487-.209-.113a4.213,4.213,0,0,0,.055,1.916,6.514,6.514,0,0,0,.219.686c.072.2.134.38.185.545-.069-.219-.11-.439-.165-.662a2.465,2.465,0,0,0-.086.8,2.6,2.6,0,0,0,.027.456c.027.158.048.312.075.473.106.638.315,1.275.442,1.817v.891a8.365,8.365,0,0,0,.082.891,6.417,6.417,0,0,0,.884,2.249l-.237.034c.117.264.223.535.343.8a8.717,8.717,0,0,0,.394.778c-.267-.343-.25-.147-.243-.041-.123-.075-.127-.182-.257-.463-.178.034-.254.309-.243.706a4.456,4.456,0,0,0,.343,1.4c-.082-.144-.168-.285-.247-.411a3.748,3.748,0,0,0-.223-.343c.154.4.638,1.231.967,1.83s.487.98-.144.514a6.442,6.442,0,0,1-.507-.686,4.271,4.271,0,0,1-.322-.586c-.082-.182-.151-.343-.206-.5s-.093-.315-.134-.463c-.086-.3-.154-.593-.278-.932-.065-.171-.141-.343-.226-.559S46.868,39.836,46.755,39.579Z" transform="translate(0 -3.178)"/><path class="a" d="M71.8,103.3c-.655-.5-.511-.5-.25-.4s.686.233.579.041l.312.175.319.158c.213.1.422.209.641.3C73.325,103.838,72.033,103.2,71.8,103.3Z" transform="translate(-17.151 -60.441)"/><path class="a" d="M95.142,11.1c.062.117.384.2.771.285a10.156,10.156,0,0,1,1.145.309c.343.048.6.079.843.12s.476.062.713.123a6.293,6.293,0,0,1,1.851.778c-.8-.065-.524.291.045.761a12.878,12.878,0,0,1,1.789,1.714c-.2-.113-.432-.247-.706-.377s-.569-.281-.888-.418a12.169,12.169,0,0,1-1.875-1.028c.113-.051-.11-.223-.442-.411a8.976,8.976,0,0,0-1.066-.507c-.518,0-.391.285-.617.439a1.265,1.265,0,0,1-.71.106c-.2,0-.446-.034-.764-.055a4.388,4.388,0,0,1-.528-.055l-.641-.051a3.678,3.678,0,0,0-.658-.1c-.127,0-.261-.027-.391-.034h-.387c-.5-.041-.9-.058-.854-.233a1.323,1.323,0,0,0-.713.106,1.121,1.121,0,0,1-.758.021l-.3-.154a16.351,16.351,0,0,1,2.4-.36.871.871,0,0,0,.487.134c-.11-.058,0-.12.2-.178s.507-.1.775-.147c.538-.093.96-.206.165-.514a17.842,17.842,0,0,0-3.476,0c-.216-.024-.305-.048-.295-.093s.113-.1.285-.151a6.458,6.458,0,0,1,.686-.154c.278-.041.593-.069.915-.089l1.073.151a5.992,5.992,0,0,0,.644.079h.531C94.58,11.11,94.82,11.089,95.142,11.1Z" transform="translate(-29.421)"/><path class="a" d="M79.7,14.144l-.209-.031a16.34,16.34,0,0,1,2.917-.843,16.231,16.231,0,0,0-2.708.874Z" transform="translate(-22.514 -1.571)"/><path class="a" d="M132.21,23.919a3.216,3.216,0,0,1-.343-.295c-.11-.1-.213-.2-.315-.3s-.206-.2-.315-.295a2.927,2.927,0,0,0-.367-.261l.226-.38c.2.25.4.494.579.754l.274.384Z" transform="translate(-56.281 -7.565)"/><path class="a" d="M55.215,38.57a2.612,2.612,0,0,1-.2.71c-.051.13-.113.267-.175.4l-.185.422a3.328,3.328,0,0,0-.4,1.46c.185-.446.034-.343.021-.463-.154.274-.319.548-.459.833A8.83,8.83,0,0,1,55.215,38.57Z" transform="translate(-5.643 -18.198)"/><path class="a" d="M131.77,28.174c.452.946.775,1.5,1.066,2.125a6.313,6.313,0,0,1,.391,1.052,7.406,7.406,0,0,1,.226,1.525c-.051.552-.305-.62-.305.165a2.924,2.924,0,0,0,.3,1.306l.123-.322a5.412,5.412,0,0,0-.165.638c-.062.25-.123.511-.2.72-.144.411-.322.607-.552.158a7.829,7.829,0,0,0-.686-3.452,11.617,11.617,0,0,1-.953-2.821c.1-.175.189-.343.281-.538-.223-.4-.442-.8-.686-1.186,0-.1.127-.13-.137-.507-.319-.367-.278-.185-.189.086s.206.651.089.686a15.317,15.317,0,0,0-1.577-2.057c-.158-.271.261.134.243.031a2.743,2.743,0,0,0-.216-.384,3.341,3.341,0,0,0-.261-.309,4.675,4.675,0,0,0-.562-.494,2.849,2.849,0,0,1-.953-1.087,15.972,15.972,0,0,1,1.268,1c-.6-.764-1.172-1.4-1.714-1.978A20.02,20.02,0,0,0,125,21c1.6,1.162,2.886,2.057,4.055,3.085a10.684,10.684,0,0,1,1.577,1.745,7.956,7.956,0,0,1,1.138,2.345Z" transform="translate(-52.424 -6.651)"/><path class="b" d="M82.23,46.557a.518.518,0,0,0-.514-.5h-.878a.5.5,0,0,0-.5.5v5.416H73.39v3.664c0,1.854.507,3.085,1.488,3.7a6.009,6.009,0,0,0,3.229.915c.583-.027,5.875,0,6.482,0a6.17,6.17,0,0,0,3.123-.994q1.409-.915,1.409-3.616V51.973H82.23Z" transform="translate(-18.505 -23.121)"/><path class="b" d="M79.99,46.625c.021,0,0-.024-.062,0s-.086.041-.045-.048a.106.106,0,0,0-.062.11v.432c0,.343.027.686.024.953-.1.062-.185-.4-.261.542-.055,1.268.2.161.209,1.3l.027-.778a7.336,7.336,0,0,1,.089,1.248c0,.257,0,.528,0,.806V52.5H78.379a19.54,19.54,0,0,0-3.2-.309c.072,0,.391-.048.343-.1a4.052,4.052,0,0,0-.912,0c-.686.11.192.154-.065.24-.285.027-.559.062-.864.082-.151,0-.312.017-.483.017a.864.864,0,0,1-.147,0h-.106l-.079-.031a.432.432,0,0,0-.093.144.665.665,0,0,0-.045.134l-.048.213c.274.658,0,1.714.1,3.051a2.074,2.074,0,0,0,.038.926,6.171,6.171,0,0,1,.158.867c.1.281.041.343-.055.4s-.209.11-.123.38c.216.442.12.309,0,.168-.055-.069-.1-.141-.113-.137s0,.082.13.312c-.319-.459-.24-.593-.213-.74a2.238,2.238,0,0,0-.113-.977l-.038.075a3.37,3.37,0,0,1-.134-.994,3.253,3.253,0,0,0-.069-.86c.027-1.4.2.024.312-.665-.117-.4-.158-1.981-.343-2.036v1.087c0-.178-.041-.041-.055-.113a11.01,11.01,0,0,0-.141-2.074,7.281,7.281,0,0,1,.96-.051c.11,0,.12.021.123.051s-.021.075-.127.134c-.168.027-.572.021-.778.045a.734.734,0,0,0,.027.161c.021,0,.034-.024.048-.086a5.827,5.827,0,0,0,.713.027h.74a6.763,6.763,0,0,1,2.132-.254c.312.031.127.1.439.134a8.782,8.782,0,0,1,1.659,0c.384.038.857.093,1.265.1v-.4c.147-1.189.041-2.681.189-3.884-.1.178-.062-.785-.021-1.059a.59.59,0,0,1,.408-.343c.226-.017.521.024.758,0-.281,0-.11.051-.309.079h.367a.929.929,0,0,1,.264.017.288.288,0,0,1,.2.192c.024.134-.065.161-.106.168a.13.13,0,0,0-.12-.079.089.089,0,0,0-.048.021h-.113a2.766,2.766,0,0,1-.415.048h-.257a.106.106,0,0,0-.031.048Z" transform="translate(-17.604 -23.165)"/><path class="b" d="M78.25,79.388c-.134.069.281.233.624.322s.614.144.12.189a2.893,2.893,0,0,0,1.327.041c-.754-.079.178-.031-.223-.127,1.21-.055,2.4-.082,3.565-.093h2.581a5.347,5.347,0,0,0,.819-.034,4.278,4.278,0,0,0,2.2-.686,2.358,2.358,0,0,0,.788-.72,2.8,2.8,0,0,0,.4-.977c.161-.418.213-.5.264-.425a1.666,1.666,0,0,1,.086.415,5.907,5.907,0,0,0,.219-1.2,5.745,5.745,0,0,1-.089,1.255c.072.069.233-.49.343-.8,0-.12.021-.24.021-.343a2.032,2.032,0,0,1-.206,1.618,3.479,3.479,0,0,1-.686,1,3.3,3.3,0,0,1-.459.377l-.422.281a2.132,2.132,0,0,0,.5-.343c.041-.048,0-.024-.1,0-.165.065-.408.161-.171-.031-.13.075-.261.151-.394.216a3.253,3.253,0,0,0,.686-.535,3.321,3.321,0,0,0,.686-1.138,3.253,3.253,0,0,1-.548.891,3.308,3.308,0,0,1-.843.61,6.512,6.512,0,0,1-1.93.744,12.851,12.851,0,0,1-1.981.189l-1.848.13c.069-.024.25-.055.038-.082a6.513,6.513,0,0,0-1.714.264l.37-.065a13.168,13.168,0,0,0-2.012.065c-.343-.048-.686-.113-1.028-.192s-.764-.165-1.351-.343l.065-.062a6.171,6.171,0,0,1-.86-.439c.216.1.147.024.11,0,.072,0,.106.048.254.13.113-.086-.278-.442-.6-.788a1.751,1.751,0,0,0,.343.233,2.327,2.327,0,0,1-.631-.648c-.141-.254-.168-.411.051-.2a5.666,5.666,0,0,0,.686.758A2.142,2.142,0,0,0,78.25,79.388Z" transform="translate(-20.523 -42.857)"/><path class="b" d="M72.3,72.86c-.038.932-.1-.261-.175-.058v-.812C72.212,71.969,72.216,72.771,72.3,72.86Z" transform="translate(-17.676 -40.162)"/><path class="b" d="M111.211,63.419a.178.178,0,0,0,.045-.106.809.809,0,0,0-.137,0h-.257a8.659,8.659,0,0,1-1.748.106c.73-.226-.775-.274-1.443-.411a9.361,9.361,0,0,1,2.057-.048c-.089.065.572.106.9.127.219-.048.171-.12.219-.185s.069-.069.185-.1a5.679,5.679,0,0,1,.816-.075c0,.216,0,.531.024.86s.021,1.309-.1,1.251c-.045.261.11.507,0,.8l-.051.147-.079-1.285a.648.648,0,0,0,.045-.261c-.041.12-.089-.226-.141-.5a1.643,1.643,0,0,0-.045-.185.134.134,0,0,0-.045-.075.064.064,0,0,0-.048.024.171.171,0,0,0-.027.051,1.272,1.272,0,0,0-.027.127v1.758c-.055.428-.13-.175-.147-.809.041-.459.058-.686.055-.857v-.2a.092.092,0,0,0,0-.045A.518.518,0,0,0,111.211,63.419Z" transform="translate(-41.034 -34.077)"/><path class="b" d="M118.638,73.923l-.048.089a11.823,11.823,0,0,0,.024-1.522A13.367,13.367,0,0,1,118.638,73.923Z" transform="translate(-48.211 -40.491)"/><path class="b" d="M103.15,64.641c.3-.038.566,0,.864-.031l.038.158Z" transform="translate(-38.063 -35.312)"/><path class="b" d="M103.625,88.54a2.626,2.626,0,0,1-.956.151,3.77,3.77,0,0,0-.867.086c.285,0,.185-.031.254-.055l-.545-.048a7.623,7.623,0,0,1,1.008-.072h.531a4.86,4.86,0,0,0,.576-.062Z" transform="translate(-36.985 -51.039)"/><path class="b" d="M97.578,50.975a16.805,16.805,0,0,1-.106-2.43c.045-.261.079.322.117-.055a1.529,1.529,0,0,0-.062-.651l-.051.144c.1-.291.189-1.213.343-.734-.048,1.5.343,2.2.165,3.363l-.168.2.041.686c-.017.048-.058.027-.045.261.072.487.079-.343.161-.319l.093,1.172h.141c.151,0-.165.048-.141.065.662.082,1.059-.161,1.611,0l-.836.093c1.028.017,1.765.093,2.475.147A15.227,15.227,0,0,0,99.552,53l-.771.079h-.555l-.686.034a6.451,6.451,0,0,0-.024-.686v-.579C97.537,51.582,97.551,51.287,97.578,50.975Z" transform="translate(-34.315 -23.813)"/><path class="b" d="M74.183,49.462a2.523,2.523,0,0,0,.418-3.493,2.667,2.667,0,0,0-.418-.439,2.513,2.513,0,0,0,0,3.932Z" transform="translate(-18.403 -22.773)"/><path class="b" d="M68.673,55.6a2.526,2.526,0,0,0-3.243-.665.437.437,0,0,0,.038.051,2.519,2.519,0,0,0,3.243.665A.446.446,0,0,0,68.673,55.6Z" transform="translate(-13.273 -28.743)"/><path class="b" d="M73.59,58.479h3.819a1.909,1.909,0,1,0-3.819,0Z" transform="translate(-18.636 -30.028)"/><path class="b" d="M111.16,45.027a58.549,58.549,0,0,0,1.474-8.844,8.1,8.1,0,0,0-1.714-.062c-.2,2.777-.309,5.975-.72,8.912Z" transform="translate(-42.697 -16.576)"/><path class="b" d="M114.694,42.364a15.838,15.838,0,0,0-.74,1.666c-.158.548-.264,1.09-.374,1.608h.459c1.4-2.585,2.708-5.214,3.915-7.98-.411-.206-.8-.428-1.224-.627a30.443,30.443,0,0,0-1.371,3.572C115.15,41.171,114.941,41.784,114.694,42.364Z" transform="translate(-44.918 -17.186)"/><path class="b" d="M117.554,37.892c-.123-.041-.367-.3-.459-.127-.538,1.858-1.4,3.524-1.6,5.628C116.272,41.656,116.865,39.726,117.554,37.892Z" transform="translate(-46.173 -17.63)"/><path class="c" d="M119.527,46.28c-.418.686-.946,1.279-1.4,1.937s-.932,1.2-1.4,1.841c-.374.5-.737,1.141-1.093,1.659h1.224a16.8,16.8,0,0,1,3.616-4A3.034,3.034,0,0,0,119.527,46.28Z" transform="translate(-46.265 -23.265)"/><path class="b" d="M82.559,45.887h1.985V42.953c-1.433-3.394-3.047-5.79-3.733-5.522-.764.3-.1,3.771,1.477,7.805C82.38,45.462,82.47,45.713,82.559,45.887Zm.4-2.365c.182-.932.442-1.573.576-1.429a4.159,4.159,0,0,1-.093,1.95c-.185.922-.442,1.577-.576,1.433A4.165,4.165,0,0,1,82.956,43.522ZM81.8,42.754a3.636,3.636,0,0,1,.062-1.817c.168-.86.418-1.443.552-1.3a3.653,3.653,0,0,1-.065,1.817C82.175,42.316,81.931,42.9,81.8,42.754Z" transform="translate(-23.173 -17.436)"/><path class="b" d="M104.928,51.525c0,.61.065,1.525.13,2.4h1.4c.086-.806.178-1.765.243-2.42.161-1.625-.4-1.865-.888-1.865S104.9,50.044,104.928,51.525Z" transform="translate(-39.231 -25.474)"/><path class="b" d="M101.413,54.371c.137-1.183-.343-1.371-.775-1.371a.884.884,0,0,0-.288.065v3.047h.847C101.276,55.5,101.354,54.854,101.413,54.371Z" transform="translate(-36.223 -27.682)"/><path class="b" d="M105.562,40.882l.425-1.954-.456.5.213-1.4-.452.778-.37-2.112-.161,1.584-.37-.542.744,3.14Z" transform="translate(-38.878 -16.969)"/><path class="b" d="M100.778,46.672l.686-1.028-.538.257.435-.9-.435.343.123-1.049-.425.74-.243-1.471v3.171A.97.97,0,0,1,100.778,46.672Z" transform="translate(-36.243 -21.478)"/><path class="a" d="M179.548,33.844c-.075,0-.151-.038-.226-.038s-.038.038.038.113c-.23,0-.267-.038-.723-.456-.189-.038-.456-.151-.686-.189a.785.785,0,0,0-.418,0c-.305.075-.607.151-.95.226l-.343.117a2.132,2.132,0,0,0-.418.189c-.113.075-.264.113-.38.189-.113.154-.264.267-.377.418a.819.819,0,0,0-.154.23.888.888,0,0,0-.075.3,3.366,3.366,0,0,1-.226,1.028,1.186,1.186,0,0,0,.075.871,1.738,1.738,0,0,0,.72.761,1.567,1.567,0,0,1,.456.38c.192.151.305.226.456.343.079.038.192.075.267.113a4.408,4.408,0,0,1,.761.305,1.577,1.577,0,0,0,.377.151,1.121,1.121,0,0,1,.38.151.949.949,0,0,0,.494.23,2.784,2.784,0,0,0,.38.151.816.816,0,0,1,.418.38,3.839,3.839,0,0,0,.569.264.487.487,0,0,0,.038.23,3.428,3.428,0,0,0,.607.38,1.371,1.371,0,0,1,.5.418,3.2,3.2,0,0,1,.494.686c.189.343.377.723.569,1.1a1.422,1.422,0,0,0,.113.38,1.131,1.131,0,0,0,.343.531.856.856,0,0,1,.113.192,1.2,1.2,0,0,0,.113.343,1.461,1.461,0,0,1,.192.418c.075.154.075.343.151.494a2.248,2.248,0,0,0,.189.456c0,.038.038.038.079.079a.4.4,0,0,1-.079.226,5.485,5.485,0,0,1,.079.686,4.36,4.36,0,0,1,.038.991,2.112,2.112,0,0,1-.23.833,4.34,4.34,0,0,0-.3.987c-.041.079-.041.117-.079.192-.151.3-.3.607-.456.874a2.681,2.681,0,0,1-.8.912.929.929,0,0,1-.418.226,2.149,2.149,0,0,1-.569.305,8.65,8.65,0,0,0-.912.418c-.192.075-.38.189-.572.264a2.566,2.566,0,0,0-.531.343c-.075.038-.189.075-.264.113-.38.113-.761.192-1.141.267a.939.939,0,0,1-.456.038c-.038-.038-.113,0-.189,0l-1.255.113H175.1a9.474,9.474,0,0,1-1.028-.151,1.738,1.738,0,0,1-.761-.343,7.943,7.943,0,0,1-1.292-.95c-.226-.226-.494-.38-.72-.607a1.193,1.193,0,0,1-.343-.418c-.151-.192-.267-.38-.418-.607,0-.041-.038-.079-.075-.117a2.657,2.657,0,0,1-.607-.95,2.759,2.759,0,0,1-.154-.987c0-.418,0-.8-.038-1.176a1.172,1.172,0,0,1,.038-.38,3.428,3.428,0,0,1,.305-1.063.768.768,0,0,1,.38-.154,5.975,5.975,0,0,0,1.176-.3,4.271,4.271,0,0,1,.686-.192c.038-.038.113-.038.151-.075a1.416,1.416,0,0,1,.686-.075,2.132,2.132,0,0,1,.418-.189l.343.113c-.038.189-.075.343-.113.531a1.131,1.131,0,0,1,.151.686,1.618,1.618,0,0,0,.041.61v.189a1.477,1.477,0,0,0,.343.836.377.377,0,0,1,.151.189,1.238,1.238,0,0,0,.5.367c.117.075.267.113.418.189a1.875,1.875,0,0,0,1.028.154,2.4,2.4,0,0,0,.761-.192.734.734,0,0,0,.343-.418,4.532,4.532,0,0,1,.72-1.138,1.4,1.4,0,0,0,.343-.569,3.583,3.583,0,0,0,.189-.38.823.823,0,0,1-.113-.189,8.62,8.62,0,0,0,0-.987c-.075-.305-.189-.61-.264-.912a.781.781,0,0,0-.23-.38,2.161,2.161,0,0,0-.151-.267c-.075-.075-.113-.151-.192-.226a1.165,1.165,0,0,0-.3-.075.826.826,0,0,1-.305-.154.2.2,0,0,0-.151-.075,5.671,5.671,0,0,1-.8-.494,1.087,1.087,0,0,0-.456-.151,2.907,2.907,0,0,1-.758-.23c-.041-.038-.079-.038-.117-.075-.113,0-.189.038-.3.038a1.189,1.189,0,0,0-.61-.418.411.411,0,0,0-.189.038,2.293,2.293,0,0,1-.847-.494,5.112,5.112,0,0,0-.531-.38c-.075-.038-.113-.113-.189-.189a.61.61,0,0,0-.305-.305,1.491,1.491,0,0,1-.531-.456,1.839,1.839,0,0,0,.113-.264c-.113,0-.189.038-.267.038-.038-.075-.075-.113-.113-.189a7.274,7.274,0,0,1-.874-1.683.572.572,0,0,1-.038-.494c-.038-.038-.038-.075-.075-.113a.535.535,0,0,0,0-.343.658.658,0,0,1-.075-.456c0-.038.038-.075.075-.113-.038-.038-.038-.075-.075-.117a2.612,2.612,0,0,1,.075-.531.137.137,0,0,0,.038-.113,3.726,3.726,0,0,1,.075-.912.48.48,0,0,1,.038-.226c.117-.418.267-.836.38-1.292.075-.038.117-.075.192-.113,0-.075,0-.117.038-.154a.984.984,0,0,0,.6-.559,2.529,2.529,0,0,1-.418.23c0-.154.038-.267.038-.38a1.512,1.512,0,0,1,.723-.569.2.2,0,0,0,.075.151,2.445,2.445,0,0,0,.267-.151h.189c.038-.079.075-.117.113-.192.113-.038.23-.075.38-.113a.535.535,0,0,0,.226-.075,4.319,4.319,0,0,1,.95-.456c.154,0,.267.038.456.038v.2a1.083,1.083,0,0,1,.192.267c.151.075.264-.038.343-.075a.72.72,0,0,0,.3-.154c.075.038.113.038.192.079a.737.737,0,0,0,.038.264l.151-.151c.151.075.113.264.23.343-.041.038-.079.113-.117.151a.824.824,0,0,1-.189.113c0,.038.038.075.038.113a1.093,1.093,0,0,0,.494-.3c.038.038.075.151.189.113,0-.113.041-.189.041-.267h-.267c-.038,0-.075-.038-.113-.075a3.3,3.3,0,0,0,.874-.075,1.6,1.6,0,0,1,.264.189l-.075.079c-.038-.079-.075-.154-.189-.079.038.079.113.079.189.079v.189c.075,0,.151.038.226.038-.075.038-.151.075-.075.192a2.842,2.842,0,0,0,.8.038c.151-.038.305-.079.494-.117V31.5c.075.038.113.075.189.113,0,.079.041.154.041.23a.5.5,0,0,0-.38.226.285.285,0,0,0,.151.075c.038-.075.113-.113.151-.189s.192-.075.267,0a.117.117,0,0,0,.038.075v.075c.113.305.418.343.494.648a2.743,2.743,0,0,0-.267.075c-.038.151-.038.151.041.343v.038c-.041.038-.079.038-.117.075.038.038.038.113.075.151-.038.075-.075.113-.113.192a.631.631,0,0,0,.23-.117.48.48,0,0,1,.264-.343.589.589,0,0,1,.117.151c-.079.038-.117.113-.154.151a.545.545,0,0,0,.113.154C179.623,33.693,179.661,33.806,179.548,33.844Zm-8.2,16.22c.038.113-.038.189-.154.3a.117.117,0,0,0,.038.075h.23a.723.723,0,0,0-.151.192.288.288,0,0,1,.189.075c.038.038.113.075.151.151.079-.075.079-.151.117-.189a.521.521,0,0,0-.117-.151c.038-.038.079-.038.117-.079s.038-.075.075-.113a.367.367,0,0,0-.267-.075.117.117,0,0,0-.038-.075c.038-.038.075-.038.113-.075.117,0,.192.075.305,0a.5.5,0,0,0-.305-.192C171.533,49.948,171.458,50.027,171.345,50.065Zm.912-3.5-.075-.075c-.117.075,0,.267-.192.267,0-.079-.038-.117-.038-.23-.113.113-.226.192-.305.267s-.226-.038-.343.113a.13.13,0,0,1,.038.075.47.47,0,0,1,.569.075,1.957,1.957,0,0,1,.305-.226.572.572,0,0,0,.041-.267Zm.377-15.648c-.113.075-.226.075-.452.038.226-.113.343-.267.531-.343C172.788,30.769,172.675,30.807,172.634,30.92Zm-.226,16.2h-.151V47.2h.151Zm.038-.456a.24.24,0,0,0-.075.267c.075.038.151.038.226.075,0-.075-.038-.075-.038-.113a1.186,1.186,0,0,0,.305-.192,1.878,1.878,0,0,0-.418-.055Zm.113,4.141-.151.154c.113,0,.151.038.267.038-.041-.134-.079-.134-.117-.209Zm1.1-20.663a1.066,1.066,0,0,0-.418.305.117.117,0,0,0-.075.038c-.038-.038-.038-.075-.079-.113a1.5,1.5,0,0,1,.648-.343c0,.021-.038.1-.075.1Zm6.3,3.38c.038-.113.151-.226.038-.377a1.714,1.714,0,0,1-.418.038v-.192l.267-.264c-.113-.192-.305-.154-.418-.267-.038-.038-.038-.038-.038-.075h.226l-.113-.113-.113.113c-.038-.038-.075-.038-.113-.075l.113-.113c-.038-.154-.038-.267-.075-.418s-.154-.267-.192-.456a.257.257,0,0,0-.226-.154c-.038.038-.113.079-.151.117,0-.154.075-.305-.041-.456l-.189-.192a.3.3,0,0,0-.305.038v.192a.521.521,0,0,1-.151.113c-.038,0-.075.038-.151.075,0-.226-.23-.264-.305-.418-.189-.038-.305-.075-.456-.113,0-.113.113-.226.038-.343l-.686-.226a.5.5,0,0,1-.113-.154.343.343,0,0,1-.192.041c-.038-.117-.075-.154-.226-.117-.038.154-.267.23-.267.494a3.182,3.182,0,0,0,.189.267l-.075.075c-.075-.038-.113-.113-.189-.189-.075.038-.151.038-.192.075-.113.038-.226,0-.3.113.038,0,.075.038.113.038a.518.518,0,0,1-.569.038,1.327,1.327,0,0,1,.569-.264v-.154a1.145,1.145,0,0,1-.343-.075.648.648,0,0,1-.264.154.453.453,0,0,0-.154-.117,1.738,1.738,0,0,0,.267-.113c-.038-.113-.151-.038-.189-.113v-.038a2.338,2.338,0,0,0,.494-.154,3.4,3.4,0,0,0,.343-.189c.079,0,.154.113.267.038v-.151c-.038-.075-.343-.075-.531,0l-.075-.075a2.468,2.468,0,0,0-.531.343,1.714,1.714,0,0,1-.61.267c-.075,0-.113.038-.189.038a.216.216,0,0,1,.189-.23,1.34,1.34,0,0,0,.305-.189.322.322,0,0,1,.189-.113.686.686,0,0,0,.343-.154c.456-.113.874-.226,1.292-.343a3.565,3.565,0,0,1,.874-.075,5.2,5.2,0,0,0,.72.075c.305.038.607.113.874.151a7.4,7.4,0,0,1,.912.23,2.331,2.331,0,0,1,.531.264l.8.569a1.632,1.632,0,0,1,.38.449c0,.038.038.075.075.117.113.189.226.343.343.531a1.639,1.639,0,0,0,.23.418,1.467,1.467,0,0,1,.226.686,6.652,6.652,0,0,1,.192.874c.075.494.075.987.113,1.443,0,.151.038.267.038.38a2.889,2.889,0,0,1-.038.569,2.454,2.454,0,0,1-.72.267,4.641,4.641,0,0,0-.686.189c-.264.113-.494.075-.758.189l-.343-.113c-.113-.151-.075-.418-.305-.456-.151.113-.038.23-.075.343-.038-.038-.113-.038-.113-.075l-.23-.23c0-.494-.038-.987-.075-1.481.038-.075.075-.075.151-.075a.792.792,0,0,0,.758-.49c.038,0,0-.038,0-.075-.075-.038-.189.075-.267-.038a2.583,2.583,0,0,1,.305-.134Zm-4.8-1.289c.038,0,.075,0,.075-.038v-.041a.13.13,0,0,0-.075.041Zm.531-1.33c-.038-.038-.075-.075-.113-.075.075-.117.075-.23.226-.267Zm.531-.8c-.075.151-.226.113-.343.113.093-.093.206-.206.356-.13Zm.531.267c0,.151-.075.189-.151.189a1.282,1.282,0,0,0-.644.189c.075-.113.075-.113.264-.264.206-.017.356-.161.545-.13Zm-.343,1.405a1.241,1.241,0,0,0,.343-.154.418.418,0,0,0-.418-.038c.055.058.055.137.093.175Zm1.1-.267c.038-.113.075-.113.189-.038-.045.058-.1.1-.171.021Zm.189-1.974v-.075h-.038c-.038.038-.038.038-.038.075Zm.686.531a.857.857,0,0,1-.192-.113c-.075.038-.151.038-.189.075l-.113.113c.151.075.264.113.418.192a2.276,2.276,0,0,1,.093-.285Zm-.113.761c.075.113.189.189.264.3a.576.576,0,0,1-.038.23c.113.038.151-.038.23-.075,0,.151-.154.151-.192.226a.737.737,0,0,1-.264.038c0-.075.038-.189.038-.264-.038-.154-.079-.305-.117-.418a.12.12,0,0,1,.1-.055Zm2.276.644a.822.822,0,0,0-.189-.113c-.038.189.038.264.189.38.134-.134.055-.209.017-.285Zm.192.644c.038-.151.038-.151-.154-.226.017.147.017.147.171.209Zm.686,3.04c-.151-.151-.113-.343-.226-.494-.113.189.038.343-.038.569a.96.96,0,0,1,.264-.093Zm-.151.264c.038,0,.075-.038.151-.113h-.189v.075c.014.021.014.021.051.021Z" transform="translate(-81.777 -11.858)"/><path class="a" d="M230.821,45.638c-.038.38-.117.758-.154,1.138-.038.113-.038.23-.075.305s-.113.189-.189.305a1.882,1.882,0,0,0,0,.8,8.227,8.227,0,0,1,.113.95,3,3,0,0,1-.075.61,6.726,6.726,0,0,0-.343,1.251.617.617,0,0,1-.113.343c0,.226-.038.456-.038.72v.154l-.418-.038a.281.281,0,0,1,.189-.038l.038-.038a.038.038,0,0,0-.038-.041c-.075-.038-.113,0-.189,0a.631.631,0,0,0-.267,0,.147.147,0,0,0-.038.079l-2.173-.154-.075.075-.305.154-.912-.075-.151-.267c0-.189-.038-.343-.038-.531.075-.038.113-.075.189-.113.038-.117,0-.192-.151-.23-.038-.226-.117-.418-.154-.607a.84.84,0,0,0,0-.686c-.113-.189,0-.377.192-.531l.113.23a1.852,1.852,0,0,0-.038-.456v-.418c-.075.038-.113.075-.189.075-.154-.151-.041-.343-.154-.569a1.714,1.714,0,0,1,.343.113.737.737,0,0,0,.038-.264c0-.154-.038-.267-.038-.418-.075.075-.113.075-.189.151-.154-.151-.079-.38-.192-.531a.638.638,0,0,0,.23-.113c.038-.038.075-.117.151-.192a.956.956,0,0,1-.343-.038,4.56,4.56,0,0,1-.189-.987,6.514,6.514,0,0,1,.075-1.481,7.974,7.974,0,0,0,0-.95c.038-.192.038-.38.075-.569a2.925,2.925,0,0,1,.038-.572,2.489,2.489,0,0,0,.075-.912c0-.113.038-.226.038-.343h-.038l-.189-.154a1.028,1.028,0,0,0-.151-.264.137.137,0,0,1,.038-.113l-.117-.038h-.264c-.075.038-.113.075-.151,0h-3.154l-.075-.079h-.038v.117a.5.5,0,0,1-.154-.117h-.3v.117h-.017c0-.038-.041-.079-.041-.117l-.644.038c-.038.041-.113,0-.189.041a.7.7,0,0,1-.305.038c0,.113-.075.226-.075.343-.038.761-.113,1.522-.151,2.28,0,.531.038,1.063.038,1.6s.038,1.138.038,1.714V47.77a10.094,10.094,0,0,1-.267,1.824,11.518,11.518,0,0,1-.113,1.635,1.852,1.852,0,0,0-.038.456c0,.151-.038.3-.038.494h-.038l-1.443-.117a4.038,4.038,0,0,1-1.371.154,1.8,1.8,0,0,0-.343-.113.685.685,0,0,0-.305-.041c.038-.038.038-.075.075-.113l-.686-.075h-.038c0-.038,0-.038-.038-.038l-.038.038h-.117a.946.946,0,0,1-.038-.305c.038-.038.079-.075.079-.113a.137.137,0,0,0,.113.038l.075-.075h.069a.038.038,0,0,0,.038-.038.535.535,0,0,1-.075-.226.038.038,0,0,0-.038.038v-.13a.38.38,0,0,0-.113-.038h-.075a1.2,1.2,0,0,1,.113-.343.778.778,0,0,1-.154-.5,10.153,10.153,0,0,0-.075-1.1.961.961,0,0,0-.075-.264.946.946,0,0,0,.113-.192c-.038-.189-.038-.38-.075-.569a.343.343,0,0,1,.192-.038c.038.343.113.686.151,1.028.038,0,.038-.038.038-.075.075-.038.113-.075.192-.113a.123.123,0,0,0-.041-.079.411.411,0,0,1-.151-.452,1.045,1.045,0,0,0,0-.343c0-.075-.038-.113-.038-.192a3.689,3.689,0,0,0,0-.912c.038-.226.038-.494.075-.8,0-.038-.038-.113-.075-.113v-.943a.665.665,0,0,1-.038-.267,3.485,3.485,0,0,0-.038.644c0,.61-.038,1.217-.075,1.786a3.716,3.716,0,0,0-.038.644c-.079,0-.117.041-.192.079,0-.038-.038-.038-.038-.079.038-.3,0-.607.038-.908a7.354,7.354,0,0,0,0-.912,3.317,3.317,0,0,1,.038-.61,1.878,1.878,0,0,0-.038-.456v-.987c0-.189-.038-.38-.038-.569a13.953,13.953,0,0,1,.151-2.166c.079-.343.079-.72.154-1.063v-.189c0-.761-.038-1.522-.038-2.317,0-.418.038-.8.075-1.217a2.348,2.348,0,0,1,.038-.531c0-.38.038-.72.038-1.1a4.383,4.383,0,0,1,.113-.987c0-.117.038-.23.038-.343a6.557,6.557,0,0,1,0-1.217c-.038-.418.038-.833.038-1.251a.97.97,0,0,1,.041-.343,1.4,1.4,0,0,1-.117-.874,3.7,3.7,0,0,0,.038-.644v-.686c0-.264.038-.531.038-.8v-.151l1.33.113a.13.13,0,0,1,.075-.038c.079,0,.117-.038.154-.038.418.113.836-.038,1.251.038a8.807,8.807,0,0,0,.95.075,2.67,2.67,0,0,1,.61.079.415.415,0,0,1,.151.377c-.038.38-.038.8-.038,1.179v.723a.178.178,0,0,1,.038.226c.038.456,0,.836,0,1.255,0,.075,0,.113.038.151h-.038V31.7c-.113.113-.113.113,0,.23v.456a.685.685,0,0,0,.075.264h-.075a.75.75,0,0,0,.038.305h.038a9.48,9.48,0,0,1,.154,1.028,9.3,9.3,0,0,1-.041,1.481.84.84,0,0,0-.038.305v.075c0,.075.038.151.038.226a1.392,1.392,0,0,0,.836.23,7.3,7.3,0,0,1,1.292.038c.226.038.494,0,.72.038h.5l.607-.075.38.151.343-.264h.572a.038.038,0,0,1,.038-.038v-.994a6.437,6.437,0,0,0-.038-.871,3.048,3.048,0,0,1-.038-.836,2.571,2.571,0,0,0-.117-1.063,1.457,1.457,0,0,0,.038-.912,5.559,5.559,0,0,0-.075-1.141,4.011,4.011,0,0,1,.113-1.176c.041-.192.079-.38.117-.572a.638.638,0,0,1,.189-.456l-.151-.264.343-.343,1.9-.418,2.742.038v.38l.23.343V27.9c-.038.038-.038.113-.075.151-.075.117-.192.267-.267.267-.113.075-.151.151-.075.264a2.135,2.135,0,0,0,.38-.113,2.985,2.985,0,0,1-.113.569.967.967,0,0,1,.113.494c0,.343.038.723.075,1.1a.96.96,0,0,0,.075.264c-.038.038-.038.117-.113.192a2.945,2.945,0,0,1,.065.569,1.633,1.633,0,0,1-.189.038,12.027,12.027,0,0,1-.192-1.632,1.45,1.45,0,0,0,.038-.418.13.13,0,0,0-.075-.038c-.113.189-.189.343-.305.569a.83.83,0,0,0,.154.38c0,.113-.038.226,0,.3a1.087,1.087,0,0,1-.075.686c0,.038.038.075.075.151a.723.723,0,0,0,.113.531c-.151.267.113.569-.113.874a1.548,1.548,0,0,1,.151.267,4.85,4.85,0,0,1-.038.758,5.139,5.139,0,0,1-.038.761,2.618,2.618,0,0,0,.038.758,1.028,1.028,0,0,0,0,.5.13.13,0,0,0,.113-.041,2.328,2.328,0,0,1,.075-.456.833.833,0,0,1-.038-.607,4.607,4.607,0,0,0,.038-.72c0-.61.079-1.217.117-1.824v-.61c.075-.038.113-.038.189-.075,0,.038.038.038.038.075-.038.305,0,.61-.038.912a7.354,7.354,0,0,0,0,.912v.61a1.844,1.844,0,0,0,0,.456v.987c0,.189.038.38.038.569a13.092,13.092,0,0,1-.151,2.125c-.075.38-.075.761-.113,1.1a.343.343,0,0,0-.038.189c.038.761.038,1.519.038,2.28,0,.418-.038.836-.079,1.255v.579a2.033,2.033,0,0,0,.267.569,3.685,3.685,0,0,1,.343,1.028.175.175,0,0,1,0,.178Zm-15.915-1.6Zm.418-4.48c0-.192,0-.192-.192-.192h-.113l-.038.079c.075.113.189.189.23.264a.141.141,0,0,0,.113-.151Zm-.075,10.064-.23-.113v.151c.075.038.113.038.192.079,0-.051.038-.079.038-.117Zm1.289-13.1-.075-.075a.315.315,0,0,0-.38.267c0,.151.038.189.192.189s.113.038.151-.151a.343.343,0,0,1,.113-.23Zm.686,12.117c-.23-.189-.343.075-.494.038a.038.038,0,0,0-.038.038.655.655,0,0,0,0,.38c0,.038,0,.038.226-.151a1.172,1.172,0,0,1,.305-.305Zm.456-16.3c0-.075-.038-.151-.113-.151h-.23c-.113,0-.113.075-.113.151,0,.154,0,.192.113.192h.23c.113,0,.113-.075.113-.151Zm.3-.8c.079,0,.117-.038.117-.113s0-.117-.079-.117-.113,0-.151.117q0,.058.113.113Zm.456,3.15c-.075-.075-.151-.113-.189-.189a.322.322,0,0,0-.267-.075c-.038,0-.113.038-.075.075a.237.237,0,0,1,.075.267c0,.075.038.113.154.113h.189c.075,0,.113-.038.113-.075Zm0,3.5a1.924,1.924,0,0,0-.264-.267H218.1c-.079,0-.23.154-.192.23a.367.367,0,0,0,.154.189c.075.038,0,.038.038-.038s.264,0,.339-.113Zm5.827.38c0-.038,0-.075-.038-.075-.117-.154-.117-.154-.23,0a.117.117,0,0,1-.038.075h.113c0,.038.038,0,.038,0a.057.057,0,0,0,.079,0Zm1.556,8.47h-.075c-.038.038-.075.113-.113.151l.151.075a.48.48,0,0,1,.024-.226Zm.075,2.849a.4.4,0,0,0-.189-.113c.038.113.075.151.075.226h.075a.137.137,0,0,0,.024-.113Zm2.509-2.317c-.154-.038-.041-.23-.117-.305,0-.075-.038-.038-.075,0-.113.154-.151.23-.075.38.038.075.075.113.075.189s.075.041.075.041a2,2,0,0,1,.1-.305Zm.343-16.066a.751.751,0,0,0-.151-.305c0-.038-.075-.038-.113,0a.13.13,0,0,0-.038.075.219.219,0,0,0,.226.23c-.017.038.021.014.058.014Zm.36,9.42c-.151-.038-.264.075-.343.189l.117.113c.075.079.113.079.226,0,.038-.038.075-.075.075-.113C229.261,41.041,229.186,40.966,229.107,40.928Zm1.1-4.292a2.948,2.948,0,0,1-.113-.305h-.075c0,.075-.038.113-.038.151a1.745,1.745,0,0,1-.113.61.254.254,0,0,0,.113.226Z" transform="translate(-111.283 -10.66)"/><path class="a" d="M265.606,49.489a.521.521,0,0,0,.117-.151.744.744,0,0,1-.038-.305.343.343,0,0,0,.226-.264c.075-.192.189-.418.267-.648a9.38,9.38,0,0,1,.343-.987c.075-.226.192-.418.267-.607a1.065,1.065,0,0,0,.038-.343.284.284,0,0,0,.038-.151c.075-.23.113-.418.189-.607,0-.079.038-.117.079-.192a5.308,5.308,0,0,0,.264-.836,2.234,2.234,0,0,1,.192-.456c.189-.531.415-1.028.644-1.556a1.34,1.34,0,0,0,.151-.418,3.1,3.1,0,0,1,.192-.531c.075-.151.113-.343.189-.494a1.862,1.862,0,0,0,.151-.418,5.668,5.668,0,0,1,.23-.531,2.017,2.017,0,0,0,.113-.456.082.082,0,0,0,.075-.075c.075-.23.154-.418.23-.607l.226-.572a3.475,3.475,0,0,1,.192-.569c.075-.226.151-.456.226-.644a8.034,8.034,0,0,1,.305-.874,3.153,3.153,0,0,1,.189-.644,7.6,7.6,0,0,1,.305-.991,4.531,4.531,0,0,1,.3-.758c0-.075,0-.113.041-.151l.226-.572c.075-.226.151-.456.23-.72.038-.075,0-.154.038-.23a2.814,2.814,0,0,0,.151-.343.2.2,0,0,0-.075-.154h.038a.466.466,0,0,0,.113.075c0-.113-.038-.226-.038-.343.038,0,.075-.038.113-.038,0-.079-.038-.117-.038-.192h.075c.079-.189.154-.38.23-.569l.226-.686a4.826,4.826,0,0,0,.154-.61,1.1,1.1,0,0,0,.075-.343l.151-.151v-.343a.343.343,0,0,1,.192-.038c.038,0,.075.038.113.075a.535.535,0,0,0,.226-.075v.038c.117-.038.267-.038.38-.075h.216a5.2,5.2,0,0,0,.72.075,3.065,3.065,0,0,1,.607.038.141.141,0,0,0,.117-.038,1.69,1.69,0,0,1,.758-.038.685.685,0,0,1,.494.154h.267v.264h.038c.113.343.267.723.418,1.066a2.393,2.393,0,0,1,.075.264c.038.113.113.23.151.343.079.189.154.418.23.607.075.267.113.531.189.761s.192.531.267.8a.487.487,0,0,0,.038.23c.038.038.075.038.113.075v.151c.075.192.192.343.267.535l-.038.038c.038,0,.075.038.151.075-.075.038-.113.075-.151.075a.117.117,0,0,0,.075.038.24.24,0,0,1,.226.189c.038.079.075.117.113.192a.3.3,0,0,1,.041.151,1.532,1.532,0,0,1,.377.686c.038.113.117.226.154.343a2.146,2.146,0,0,0,.151.531,4.607,4.607,0,0,1,.305.61c.075.113.151.189.113.343.151.079.151.267.226.418.038.079.038.192.079.267a4.058,4.058,0,0,1,.264.72c.075.23.192.418.267.648l.038.038a.137.137,0,0,1,.113.038,1.094,1.094,0,0,1,.189.267.13.13,0,0,1,.041.113A3.918,3.918,0,0,0,282,40.714c0,.038.038.075.038.113.079.343.192.644.267.95a.521.521,0,0,0,.151.113l-.113.113c.075.117.113.267.189.38a.429.429,0,0,1-.038.192.137.137,0,0,1,.117-.041.141.141,0,0,0,.038.117c-.038,0-.038,0-.075.038a.284.284,0,0,0,.038.151.566.566,0,0,0,.075.23c.038.038.075.113.113.151v.113c.038.038.075.038.075.075s-.038.075-.038.117a1.872,1.872,0,0,0,.192.415,1.967,1.967,0,0,0,.188.418c.075.192.189.418.264.648a5.659,5.659,0,0,0,.305.72,3.834,3.834,0,0,1,.192.569,2.25,2.25,0,0,0,.189.456c.075.041.075.154.113.267a.757.757,0,0,0,.154.305.888.888,0,0,1,.075.3.408.408,0,0,0,.075.192,4.226,4.226,0,0,0,.264.607,1.218,1.218,0,0,0,.154.305.525.525,0,0,1,.113.456c.038.038.038.075.075.113a2.179,2.179,0,0,0-.038.494.5.5,0,0,0,.113.456,1.029,1.029,0,0,0,.192.226c0-.075.038-.113.038-.151a.038.038,0,0,1,.038.038c0,.038.038.075.038.113-.038.117.038.192.075.267a4.544,4.544,0,0,1,.192.418v.075a.14.14,0,0,1-.117-.038c-.038.038-.038.075-.075.113.075.038.151.038.23.075a.511.511,0,0,1-.079.23c-.113.038-.3-.038-.377.151.038.192.226.192.377.305a.137.137,0,0,0-.038.113c.154.113.267,0,.418-.038a.285.285,0,0,1-.151-.038c-.038,0-.113.075-.189-.075h.452c.041.075.117.151.192.264-.075.038-.113.075-.151.075a.857.857,0,0,1-.305.079c-.343.038-.686.113-1.028.151a2.286,2.286,0,0,0-.494.113c-.075,0-.154.075-.23.113a1.255,1.255,0,0,1-.644.192c-.075,0-.113-.038-.192,0l-.871.113a.147.147,0,0,1-.117.038,1.028,1.028,0,0,0-.343-.038c-.041-.038-.079-.075-.117-.075a1.416,1.416,0,0,0-.377-.038.476.476,0,0,0-.343-.113c-.075,0-.154-.079-.23-.117s-.113-.113-.189-.151c.113,0,.189,0,.226-.113a.4.4,0,0,0-.226-.267c-.113-.151-.192-.264-.305-.418a.137.137,0,0,0,.038-.113,1.545,1.545,0,0,1-.151-.267c0-.075-.038-.151-.038-.226l-.089-.439c-.038-.075-.038-.151-.075-.226-.079-.267-.154-.535-.23-.8-.038-.192-.113-.38-.151-.569,0-.038-.038-.117-.038-.154s-.038-.075-.038-.113c-.079.113,0,.23,0,.343h-.041l-.113-.456c-.038-.192-.113-.38-.151-.569a4.023,4.023,0,0,1-.151-.648,2.1,2.1,0,0,0-.192-.836c-.075-.075-.075-.189-.113-.264a1.548,1.548,0,0,1-.151-.267l.113-.113c-.038,0-.038-.038-.075-.075-.038.038-.075.038-.117.075-.075-.226-.151-.418-.226-.607s-.189-.38-.267-.569a.374.374,0,0,0-.189-.079,4.662,4.662,0,0,0-.723-.075h-.264c-.038-.038-.075-.075-.075-.113.075-.038.189-.113.264-.151-.189-.075-.343.038-.531-.038,0,.075.038.113.038.189-.038,0-.075.038-.113.075a.285.285,0,0,1-.151-.038c-.038.038-.038.075-.075.113h.038a.137.137,0,0,0,.113-.038c.038.038.113.154.189.075.038.079.075.117.075.192h-.264a.836.836,0,0,1-.192-.154v-.151c-.038,0-.075,0-.075.038v.24c-.113.151-.3,0-.494.038v-.154a2.176,2.176,0,0,0-.494.23c-.189-.038-.418-.113-.607-.151a.521.521,0,0,0-.151.113c-.041-.038-.041-.075-.079-.151-.038.075-.113.151-.151.226-.038-.038-.113-.038-.151-.075l-.075.075a1.456,1.456,0,0,1-.343.075h-.463c-.267,0-.494-.038-.723-.038a.644.644,0,0,0-.456.113c0,.038.038.038.038.079-.113.038-.151.113-.189.226s-.113.305-.151.456a10.741,10.741,0,0,0-.38,1.217,1.632,1.632,0,0,1-.192.377c-.113.305-.226.648-.343.95-.075.23-.192.456-.267.686a.809.809,0,0,0-.113.456.717.717,0,0,0-.418.3,6.232,6.232,0,0,1-.226,1.714.134.134,0,0,1-.079.038c-.075.192-.151.38-.226.531h-.038c0-.038-.038-.038-.038-.075a1.9,1.9,0,0,1-.267.113v.171a.494.494,0,0,0,.23.038c0-.038-.038-.038-.038-.075a.137.137,0,0,1,.113-.038c.113.038.038.113,0,.189l.226.113a.4.4,0,0,1-.343.154h-.117a3.534,3.534,0,0,1-.912.113c-.264.038-.569.038-.871.075h-.456c-.041,0-.079.038-.117.075,0-.038-.038-.038-.075-.075H266.7l-.23-.113c-.038.075-.075.113-.075.151a.84.84,0,0,1-.305.038.116.116,0,0,1-.075-.038c-.075,0-.113.038-.189.038-.192-.075-.267-.075-.38.038-.38.038-.569.038-.644-.075-.192.113-.192.113-.343.075,0-.075.038-.113.075-.113a2,2,0,0,0,.305-.267.2.2,0,0,1,.151.079c.075-.038.189-.079.267-.117.038-.113.075-.189.113-.3.038,0,.075-.038.151-.038a.147.147,0,0,1,.038-.117c-.075-.038-.151-.038-.189-.075l-.113.117a1.179,1.179,0,0,1-.305-.079h-.113l-.23-.113c-.038.075-.038.113-.075.113a.521.521,0,0,1-.151.117,2.743,2.743,0,0,1-.075-.267c.038-.038.075-.113.113-.151a.418.418,0,0,1,.264-.343.284.284,0,0,1,.038-.151.13.13,0,0,0,.041.113c.038-.075.038-.075.075-.343.075-.151.189-.305.264-.456v-.189c.038-.038.038-.113.075-.154h-.038a.038.038,0,0,0-.038.041v-.147c.117-.151.154-.38.267-.569a1.285,1.285,0,0,1,.226-.267Zm.23,2.66v-.113c-.075-.038-.151-.038-.23-.075a.987.987,0,0,1-.3.113c-.038,0-.075.038-.038.113a.343.343,0,0,1,.418,0c.075.014.113-.024.151-.024Zm-.23.72a2.162,2.162,0,0,1-.151-.264.559.559,0,0,0-.038.226.411.411,0,0,1,.189.051Zm1.683-6.671c-.075-.075-.151-.038-.267,0l.23.113C267.241,46.274,267.289,46.236,267.289,46.2Zm.38-.226c-.038-.038-.075-.038-.154-.075.117-.038.154-.079.267-.117-.113-.189.075-.3.113-.494a.137.137,0,0,1-.113-.038c-.075.192-.113.38-.305.494a.236.236,0,0,1-.038.154l.117.113c-.079.038-.117.038-.154.075.038.075.038.151.192.151a.545.545,0,0,1,.065-.264Zm.686,4.936v-.151h-.113c0,.075-.038.113-.038.189a.1.1,0,0,0,.137-.038Zm.267.531c.151-.075.151-.113.075-.189-.038,0-.075.038-.113.075a.137.137,0,0,1,.024.113Zm.226-.531v.154a.686.686,0,0,1,.267-.041c.075-.075.038-.151,0-.264a2.164,2.164,0,0,1-.281.151Zm.38-4.748.113-.226c.154-.038.117-.192.154-.267h.113a1.656,1.656,0,0,1,.075-.418h-.038c-.038,0-.075.038-.113.075h-.23c0,.079-.038.117-.038.192v.226a.116.116,0,0,0-.075.038c-.038-.113,0-.226-.151-.264v.151a.13.13,0,0,0,.075.038c-.038.038-.075.038-.154.075a2.772,2.772,0,0,1,.079.305.309.309,0,0,0,.175.075Zm.607-.189c-.038.038-.075.075-.075.113a.535.535,0,0,1,.075.226c.154-.075.038-.189.079-.264a.661.661,0,0,0,.189.151c.113-.038.189-.113.305-.151h.113c.189-.075.3-.189.189-.418-.075,0-.113-.038-.189-.038-.113-.075-.113-.267-.305-.23.075.117.23.192.151.343-.075,0-.151-.038-.226-.038a.6.6,0,0,0-.151.267.038.038,0,0,0-.038-.038.144.144,0,0,0-.038-.117l-.117-.113a.521.521,0,0,1-.151.113c.062.079.1.154.175.192Zm.836-8.169h-.038l-.113.23v.038c.038,0,.075-.038.113-.038a.5.5,0,0,1,.024-.23Zm.113,10.6c.038-.038.079-.113.038-.151a.48.48,0,0,0-.226.038.823.823,0,0,1,.175.113Zm.038-3.04h.23c0-.075-.038-.113-.038-.189a.85.85,0,0,0-.305.038c.062.075.1.113.1.165Zm.418-.415c.038-.041.038-.079.075-.117a.456.456,0,0,1-.189-.189,2.055,2.055,0,0,0-.151.305Zm.038,2.355c-.038-.079-.075-.117-.113-.117a.141.141,0,0,0-.151.154c.038.038.075.113.113.151.062-.058.1-.151.137-.189Zm0-9.231a1.619,1.619,0,0,0,.117-.305.343.343,0,0,0,.038-.189c-.117.038-.154.038-.154.113a1.572,1.572,0,0,1-.113.305c-.038.038-.038.075-.038.151.1,0,.1,0,.137-.075Zm-.113,7.2c.038.038.038.075.075.117.038-.041.075-.041.117-.079-.041-.038-.041-.075-.079-.113-.051.055-.089.055-.127.093Zm.192-1.443c.075-.038.113-.038.151-.075a.226.226,0,0,0-.038-.151.158.158,0,0,0-.127.243Zm.264-9.307c.075.117.113.23.192.343a.4.4,0,0,0-.154-.38c-.014.055-.014.055-.051.055ZM272,42.8h-.189a.442.442,0,0,1-.041.226c.141-.021.141-.134.216-.209Zm.189-7.6a1.739,1.739,0,0,0,.267-.113.473.473,0,0,0-.189-.117.617.617,0,0,0-.192.075.168.168,0,0,0,.038.117.521.521,0,0,1-.113.151.411.411,0,0,0,.189.038Zm.117,7.483c.113,0-.038.189.113.151a.638.638,0,0,1,.075-.189.367.367,0,0,1-.189-.154,1.713,1.713,0,0,0-.267.079v.189c.113.075.113.075.23.038-.014-.021.024-.058.024-.1Zm.607-7.37c.038,0,.075.075.151.113l.113-.456c-.075,0-.113,0-.151-.038-.038.038-.075.038-.151.075-.038-.038-.038-.075-.113-.113.151-.226,0-.343-.192-.456a.13.13,0,0,0-.038.075h-.189a.854.854,0,0,1-.192.117.479.479,0,0,0,.038.226c.038-.038.079-.075.117-.075s.075.038.113.038c.038.075.038.151.075.189h.038c-.075-.075-.038-.113.038-.151a.521.521,0,0,0,.151.113.343.343,0,0,0-.038.38.5.5,0,0,1,.216-.021Zm-.737,6.972a.857.857,0,0,1,.305-.038c-.038-.075-.038-.113-.075-.154a.449.449,0,0,1-.23.041Zm.117,2.057c.151,0,.151-.151.226-.189-.038-.075-.075-.113-.113-.192a.322.322,0,0,1-.192.041C272.177,44.149,272.256,44.224,272.293,44.347Zm.189-3.493-.151-.154c-.075.117-.038.154.038.23.038-.048.062-.086.113-.086Zm.189,1.028c-.038-.038-.038-.113-.075-.189a.5.5,0,0,0-.113.189.343.343,0,0,1,.189.038Zm-.075.723h-.038a1.838,1.838,0,0,1,.113.264h-.151c.038.038.038.075.075.151.075-.113.154-.189.192-.264a2.129,2.129,0,0,0-.192-.165Zm4.179-1.94-.226-.686c-.117-.267-.23-.531-.343-.761s-.267-.494-.38-.758c-.075-.154-.189-.305-.264-.494l-.117-.23c-.038-.113-.113-.151-.151-.226-.151.075-.267.113-.305.264,0,0-.075.038-.075.075l-.113.117c-.113.151-.189.3-.305.494l-.343.569a2.4,2.4,0,0,1-.154.456c.038,0,0,.038,0,.038a1.1,1.1,0,0,0-.151.305c-.075.226-.189.494-.267.72-.075.151-.113.343-.189.494a1.683,1.683,0,0,1-.075.38c.264.038.456.075.686.113a2.537,2.537,0,0,0,.531.038.727.727,0,0,1,.23.079c.038,0,.113.038.151.038s.038-.079.075-.079.038.079.075.154a2.327,2.327,0,0,0,.154-.192h.189c0,.038-.038.079-.038.117.154-.079.305.075.456-.038l-.075-.079a.48.48,0,0,1,.226-.038c.079.23.305.192.456.23V41.8h-.151c-.038.038-.038.038-.038.075s-.038.038-.075.038a.038.038,0,0,0,.034.031c.113-.038.267-.075.418-.113a.137.137,0,0,1-.038-.113.535.535,0,0,0,.226.075c.038-.038.113-.038.192-.113-.038-.117-.079-.23-.117-.38-.038-.038-.038-.075-.038-.154a.384.384,0,0,0-.075-.343Zm-3.154-6.036c-.038.113-.113.226-.151.343.038.038.038.075.075.113v.154c-.075.038-.113.075-.189.113.151.075.226.075.305-.075-.041-.075-.079-.113-.117-.192.038-.168.154-.281.075-.47Zm1.33,8.316h.038a.754.754,0,0,1,.572,0h.038a.559.559,0,0,1,.343.075V42.87c-.113-.038-.189-.075-.3-.113a.233.233,0,0,1-.305.038.038.038,0,0,0-.038.038c-.075-.038-.151-.038-.189-.075a.275.275,0,0,0-.041.113c-.038,0-.075,0-.075-.038-.038.038-.075.038-.075.075s0,.024.034.024Zm.566-9.7c-.041-.038-.117-.038-.154-.079-.075.041-.075.117-.038.192C275.406,33.323,275.444,33.286,275.516,33.248Zm.075,3.771c0-.079-.038-.154-.038-.23h-.079a.38.38,0,0,0,.041-.189c-.185.1-.11.329.082.408Zm.113,6.191c.038.075.038.075.264.038.117.038.192.075.305.113.113-.038.192-.075.305-.113-.113-.113-.154,0-.23,0-.075-.075-.151-.192-.264-.305a.13.13,0,0,1-.038.075c.038.038.038.079.075.117-.147.027-.264.027-.411.065Zm.312-5.375V37.8h-.23v.117A1.405,1.405,0,0,0,276.016,37.835Zm-.158-.943a.548.548,0,0,0,.075.267l.23.113a.507.507,0,0,0-.305-.38Zm.384,6.77a.607.607,0,0,1-.113-.23v.154h-.113c.038.075.038.075.226.113Zm.075-5.279c.038-.117-.075-.192-.075-.305h-.113a2.4,2.4,0,0,0,.075.264.13.13,0,0,0,.113.034Zm.418,5.772c.038-.151.189-.075.305-.192a.13.13,0,0,1-.075-.038c-.079,0-.154.038-.23.038a.141.141,0,0,1-.038.117c0-.038-.038-.075-.038-.117s-.075-.038-.113-.038a1.179,1.179,0,0,0-.23.117,1.55,1.55,0,0,1,.343.189v.038c.075-.038.189-.038.264-.075l.117.113c.075-.038.151-.038.226-.075a.521.521,0,0,0-.151-.113c-.038.038-.113.038-.192.075a1.628,1.628,0,0,0-.189-.045Zm.113-4.71c-.038-.075-.038-.113-.075-.192.075,0,.113-.038.192-.038v.154c.151-.038.113-.154.151-.23-.075-.075-.151-.113-.23-.189v.189c-.075-.038-.113-.075-.189-.113,0,.075-.038.189-.038.226.075.079.113.154.151.192Zm.456-.761a.137.137,0,0,0-.113.038c0,.038.038.075.038.117a.522.522,0,0,0-.113.151.613.613,0,0,1,.113.216c.038-.075.075-.113.075-.189.038.075.075.075.117.113-.041.113-.079.23-.117.305h.038c.038.075.038.151.079.226s.038.154.189.154a.429.429,0,0,1-.038-.192c0-.038.038-.075.038-.113a.288.288,0,0,0-.075-.189v-.377a1.683,1.683,0,0,1-.23-.267Zm1.714,6.228h-.038c0,.041-.038.117-.038.154.113.113.113.113.226.113,0-.147-.117-.2-.154-.274Zm.494.912a.936.936,0,0,0,.226.192h.041c-.041-.075-.079-.113-.117-.192a.412.412,0,0,1,.038-.189c-.038,0-.075-.038-.113-.038-.041.069-.041.144-.079.219Zm.459,1.21a1.942,1.942,0,0,1,.267-.151.13.13,0,0,1,.038.075.521.521,0,0,1,.113-.151c0-.041-.038-.079-.038-.117a2.676,2.676,0,0,1-.305-.113.137.137,0,0,0-.038.113.48.48,0,0,1-.226-.038v.038a.3.3,0,0,0,.151.154A1.631,1.631,0,0,1,279.972,47.035Zm.113.305a.449.449,0,0,0-.113.456c.075,0,.113.113.226.075-.038-.192-.038-.38-.075-.569Zm.192-1.6a.686.686,0,0,0-.192.117V45.9a.137.137,0,0,0,.113-.038l.192.189v-.189c0-.041.038-.079.038-.154a.521.521,0,0,0-.151-.113Zm.264-.72c-.075-.117-.113-.23-.3-.267a.576.576,0,0,0,.113.267.285.285,0,0,0,.151.038Zm.075.264c-.075-.038-.151-.038-.226-.075a.13.13,0,0,1-.038.075,1.632,1.632,0,0,1,.264.154c0,.038.038.075.075.113v.189h-.034c-.038-.038-.075-.113-.151-.189v.226c.075.079.151.192.267.305-.038,0-.038,0-.117.038.038.038.079.113.117.151a1,1,0,0,0,.189-.226c-.038-.075-.038-.151-.075-.23a.285.285,0,0,0,.075-.151c-.038-.038-.075-.038-.113-.075l-.113-.113c-.041,0-.079-.038-.117-.038Zm.192-2.468v.075c-.075.038-.117.038-.154.075s.038.075.038.117a.322.322,0,0,0,.192-.041c0-.075-.038-.151-.038-.226Zm.151,4.748a1.838,1.838,0,0,1-.113-.264c-.082.151-.045.264.106.264Zm0-4.292a.521.521,0,0,0-.113.151c.075,0,.151.075.226,0-.045-.038-.072-.106-.12-.151ZM281,46.767a.267.267,0,0,0,.151.041c.041-.154-.038-.267-.226-.267A.535.535,0,0,1,281,46.767Zm.305-.758c.038,0,.075-.038.151-.075-.038-.117-.113-.23-.151-.343a.13.13,0,0,0,.038-.075c-.075.038-.151.038-.23.075a.284.284,0,0,0,.038.151.24.24,0,0,1,.154-.038.422.422,0,0,1,.038.192c-.038.038-.038.075-.075.113Zm0-.607a.531.531,0,0,1,.151-.154c-.075-.075-.151-.113-.226-.189a.381.381,0,0,1-.079.226.933.933,0,0,0,.144.117Zm.607,5.049c.075,0,.151-.038.23-.038-.079-.151-.154-.189-.343-.113a.521.521,0,0,1,.1.151Zm.267-7.065c-.038-.075-.079-.113-.117-.189s-.075-.075-.075-.154-.075-.075-.075-.113a.038.038,0,0,0-.038.038,1.145,1.145,0,0,1,.075.343c.079.038.141.038.219.075Zm.264,1.861c-.038-.151-.113-.226-.226-.189a.13.13,0,0,0-.038.075h-.151l.075.075c.079,0,.117-.038.192-.038a.2.2,0,0,0,.137.075Zm-.226.418c.075-.038.113-.075.151-.075a.85.85,0,0,0-.151-.23v.154c-.038.075-.075.113-.154.113.117.113.154.23.267.343h.113a2.138,2.138,0,0,0-.237-.305Zm-.075,5.927c-.041.038-.041.075-.079.113a.2.2,0,0,0,.154.075c0-.075-.038-.113-.038-.189Zm.456-1.217c-.041-.038-.079-.038-.154-.038l-.075.075a.038.038,0,0,1,.038.038h.343a.343.343,0,0,1-.038-.189c-.048.075-.086.075-.123.113Zm0,1.519c0,.038.038.038.038.079h.038c-.038-.117-.038-.23-.075-.343-.154-.075-.23-.075-.23,0a.13.13,0,0,0,.038.075c0,.075-.038.113-.038.189Zm.871.836c-.151,0-.264.038-.415.038a.713.713,0,0,0-.305.075.284.284,0,0,0-.151.038c.151,0,.226.041.343.041s.192.038.267-.079a.83.83,0,0,0,.531,0,.284.284,0,0,0-.281-.113Zm-.3-.95a1.166,1.166,0,0,0,.3-.075.541.541,0,0,0,.079-.23c-.117-.038-.154,0-.192.079-.189-.117-.264,0-.38.075-.038-.075-.113-.113-.151-.154a.6.6,0,0,0-.113.154c.038.038.038.075.075.075.141.038.271.038.37.075Z" transform="translate(-143.98 -11.488)"/><path class="a" d="M339.954,51.865c-.189.23-.264.267-.418.192-.189.038-.3.075-.456.113-.038-.075-.075-.113-.113-.192-.038.038-.075.079-.113.079h-.305l-.038-.041c-.038.041-.113.079-.151.117a.137.137,0,0,1-.113-.038c0,.038-.038.075-.038.113-.079,0-.154.038-.267.038-.038-.038-.075-.038-.151-.113a2.09,2.09,0,0,1-.267.113.823.823,0,0,0-.189-.113c0,.075-.038.075-.038.113s-.079-.038-.117-.075c-.038.038-.038.075-.075.151-.151,0-.3.038-.494.038-.038-.038-.038-.075-.075-.151a.521.521,0,0,1-.113.151.147.147,0,0,0-.117.038.661.661,0,0,0-.151-.189l-.226.113c-.038,0-.079-.038-.117-.038s-.038.075-.038.113a.343.343,0,0,1-.189-.038c-.038,0-.038-.038-.075-.075a.038.038,0,0,0-.038.038.2.2,0,0,1-.267.113c-.038-.038-.075-.038-.075-.075-.151-.075-.305-.113-.418.038-.075-.075-.113-.151-.189-.226l.113-.113a5.941,5.941,0,0,0-1.481-.38,5.323,5.323,0,0,1-1.3-.223.95.95,0,0,1-.113-.644,1.286,1.286,0,0,0-.038-.648.685.685,0,0,0-.075-.264l.189-.192a1.028,1.028,0,0,0-.113-.456.9.9,0,0,1-.117-.452,1.746,1.746,0,0,1-.113-.61,3.39,3.39,0,0,1,0-.874,5.884,5.884,0,0,0-.038-.833,3.716,3.716,0,0,1,0-.648,3.28,3.28,0,0,1,.038-.607,2.661,2.661,0,0,1,.113-.761,1.682,1.682,0,0,0,0-.456,4.143,4.143,0,0,0-.038-.686l-.113-1.028a1.3,1.3,0,0,1,.038-.38v-.192l-.113-.113c.038-.038.075-.075.075-.113-.038-.113-.038-.226-.075-.343a1.892,1.892,0,0,1-.038-.8,2.167,2.167,0,0,0-.038-.494.422.422,0,0,1,0-.305v-.343a4.686,4.686,0,0,1,.075-1.255,6.538,6.538,0,0,0,.113-1.481,2.037,2.037,0,0,1,.038-.487V34.475c0-.038-.038-.113-.038-.151a1.237,1.237,0,0,0,.075-.648c0-.113.038-.226,0-.3a3.105,3.105,0,0,1,0-.836c.038-.267.038-.531.079-.874a2.4,2.4,0,0,1-.079-.305.52.52,0,0,1,.117-.151c-.038-.075-.038-.151-.079-.189a.343.343,0,0,1,.041-.192h-.117V30.41a5.6,5.6,0,0,0,0-.8,1.282,1.282,0,0,1,.117-.531c.075-.305.151-.61.264-.953.189-.038.418-.113.607-.151a2.232,2.232,0,0,1,1.217-.151,2.057,2.057,0,0,0,.836.075h.189c.038,0,.113.038.151.038a1.594,1.594,0,0,1,.723.038.6.6,0,0,1,.305.23c0,.226-.038.456-.038.72-.041.494-.041.987-.079,1.481v1.066c0,.189.038.418.038.607,0,.38-.075.72-.075,1.1a4.284,4.284,0,0,0,.075.648,5.867,5.867,0,0,1,.041.833c-.079.038-.117.038-.192.079a.637.637,0,0,0-.075.189.857.857,0,0,0,.038.305h-.027c.038.038.038.075.075.151s-.038.075-.038.113v.038a1.073,1.073,0,0,1,.23.686c0,.113.038.264.038.418a7.665,7.665,0,0,1,.038.95c0,.226-.038.494-.038.72v.113a1.823,1.823,0,0,1-.038.648,2.743,2.743,0,0,0,.038.8,2.364,2.364,0,0,0,.038.494c0,.038.038.113.038.151s-.038.075-.075.151c.038.343.075.723.113,1.1.038,0,.038,0,.075.038a.236.236,0,0,1,.038-.154.456.456,0,0,1,.151.456c-.075.267-.113.531-.189.8.038.075.038.113.075.189a.524.524,0,0,0-.038.572c-.075.226.075.494-.075.644-.038.151-.038.267-.075.38a4.7,4.7,0,0,0-.075,1.028c0,.151-.038.267-.038.418s-.041.38-.041.569a3.677,3.677,0,0,1-.038.644l.117.117c.151,0,.343.038.494.038s.264.038.418.038c.264,0,.531-.038.758-.038a2.776,2.776,0,0,0,.8-.038.535.535,0,0,1,.226.075h.267c.113-.151.113-.151.267-.151a1.631,1.631,0,0,1,.038.189.285.285,0,0,1,.151-.038c-.038-.038-.038-.113-.075-.151h.343a.723.723,0,0,1-.192.151c.267.075.267.075.38-.075a.038.038,0,0,1-.038-.038l-.027-.024a2.036,2.036,0,0,1,.494.038,1.95,1.95,0,0,1,.456.075v-.075h.226c.075.038.192.075.267.113.038-.038.038-.038.038-.075a1.629,1.629,0,0,1,.343.189c0-.038.038-.038.075-.038h.5a.137.137,0,0,1,.038-.113.23.23,0,0,1-.038-.154c.151,0,.343.041.494.041h.912c.189-.041.226,0,.38.113.113.038.189.038.3.075a.912.912,0,0,1,.494.686,1.82,1.82,0,0,0,.117.456c.038.154.075.267-.038.38a.552.552,0,0,0-.079.343,2.742,2.742,0,0,1-.113.8c0,.038-.038.075-.038.151a.257.257,0,0,1-.113.305.284.284,0,0,1,.075.151,5.486,5.486,0,0,1-.23.761c0,.038-.075.075-.113.113H344c-.192.038-.192.038-.305.189h-1.063c-.38,0-.723.113-1.063.075l-.154-.151v.189l-.113-.113a.343.343,0,0,1-.189.038c-.038,0-.075-.038-.117-.075v.192c-.226,0-.415.038-.686.038.075-.038.113-.038.151-.079a.322.322,0,0,0-.343-.113A.549.549,0,0,0,339.954,51.865ZM331.94,39.072c.038,0,.113.038.151,0a.305.305,0,0,0,.154-.343c-.075-.038-.113-.113-.192-.189C331.827,38.654,331.94,38.88,331.94,39.072Zm.113-.607h.038c.041-.154.117-.305.154-.418-.038-.038-.075-.079-.075-.117-.038-.151.151-.226.038-.343-.267.075-.305.264-.192.531C332.015,38.236,332.053,38.349,332.053,38.465Zm0,2.657a.038.038,0,0,1,.038.038.617.617,0,0,1,.192.075c0-.113-.038-.151-.038-.226C332.17,41.046,332.132,41.084,332.053,41.122Zm.761-6.341a1.145,1.145,0,0,0,.075-.343v-.23a.618.618,0,0,0,0-.264c0-.113-.113-.151-.264-.151a.881.881,0,0,0-.117.871c-.038.038-.038.079-.075.154a2.6,2.6,0,0,1,.113.3.487.487,0,0,0,.23-.038A.935.935,0,0,0,332.814,34.78Zm.607,17.482c-.038-.038-.075-.038-.151-.075,0,.038-.038.075-.075.151a2.288,2.288,0,0,0-.192-.151c0-.154.079,0,.154,0a.493.493,0,0,0-.038-.23.47.47,0,0,1,.151.117c.038-.041.075-.041.113-.079a.686.686,0,0,1,.075.192c0,.021,0,.021-.038.065Zm0-6.307a.137.137,0,0,1,.038-.113c-.038,0-.075-.038-.113-.038,0-.151-.038-.264-.038-.418.038-.038.075-.113,0-.264a1.3,1.3,0,0,0-.113.644c.075.027.075.178.226.178Zm.147,6.067c.038.041.075.117.113.154a1.839,1.839,0,0,0,.264.113.285.285,0,0,1-.038.151,1.632,1.632,0,0,0-.189-.038h.038c-.113-.075-.189-.151-.305-.226A.5.5,0,0,0,333.568,52.022Zm1.518-.038v-.038c-.113-.038-.192-.113-.305-.151a.5.5,0,0,1-.038.189Zm.38.079c.075-.079.113-.192.189-.267h-.031l-.226.113Zm.644-11.7c0,.075.038.113.038.189.038-.038.038-.075.075-.113v.151c-.038,0-.075.038-.151.038,0-.038-.038-.075-.075-.113.045-.038.045-.075.12-.151Zm4.113,11.583a.5.5,0,0,0-.113.154c-.041-.038-.117-.079-.154-.117v-.038c.038,0,.113-.038.154-.038s.072.038.11.038Zm1.594-4.48c-.113,0-.189.038-.3.038-.041-.038-.041-.113-.079-.154.079,0,.117,0,.154.041a.113.113,0,0,1,.075-.041c.113,0,.189-.038.264-.038s.041,0,.041-.038c.075.075.113.154.189.23-.154.075-.233,0-.346-.038ZM343,47.58a.192.192,0,0,0-.267-.038c-.075-.038-.151-.038-.226-.075s-.038.038-.079.075a.566.566,0,0,0,.23.075l.151.151v-.151a.343.343,0,0,0,.189-.038Zm.912,2.622.151.151a.631.631,0,0,0-.038-.38c-.113.038-.23.038-.343.075V50.2Zm.075.644c.113-.151.151-.23.038-.418-.038.075-.038.113-.075.151s-.075.038-.154.038c.075.079.113.154.189.219Zm.226-2.012c-.038-.117.038-.267-.151-.343.075.151-.113.305.038.456.1-.038.147-.038.1-.113Z" transform="translate(-187.979 -11.121)"/><path class="a" d="M378.117,44.905c0,.154.117.343,0,.456,0,.305.038.61.038.874h.041c-.041.038-.041.075-.079.151h.038v.343c.079.113.041.305.23.38a1.63,1.63,0,0,1,.189-.038c-.038-.075-.075-.113-.075-.151a1.456,1.456,0,0,1-.075-.343h-.038a2.281,2.281,0,0,0,.075-.267,2.6,2.6,0,0,0-.113-.3v-.987c.075-.079-.038-.23-.075-.38h.226V44.6h-.113V44.45l-.113-.343a.2.2,0,0,0,.075-.154.538.538,0,0,1,0-.418.531.531,0,0,1-.038-.343.254.254,0,0,0-.038-.23l.038-.038v-.305c0-.038-.038-.075-.075-.113.038-.038.075-.075.075-.113s-.038-.038-.075-.075.038-.075.038-.113-.038-.041-.075-.041a.829.829,0,0,1,.038-.3c0-.075.038-.154.038-.23a4.85,4.85,0,0,1,.038-.758.976.976,0,0,1,.075-.267c-.113-.113-.267-.264-.38-.38.038-.038.113-.075.151-.113a.946.946,0,0,1-.038-.305c0-.113-.038-.226-.038-.343a3.6,3.6,0,0,1,.117-.494.686.686,0,0,1,0-.494c-.154-.154,0-.343-.079-.535-.038-.038-.075-.038-.113-.075a.284.284,0,0,0-.038-.151h.151c0-.226.154-.418,0-.686-.038.038-.038.075-.075.113-.038-.075.038-.192.192-.305h-.154a.343.343,0,0,1,.038-.189c-.038-.038-.038-.117-.075-.154.075,0,.113-.038.154-.038-.041-.189-.041-.343-.079-.531a1.638,1.638,0,0,0,0-.874.493.493,0,0,1-.038.23v-.23c.038-.038.075-.038.117-.075a.48.48,0,0,0,.038-.226c-.154,0-.079.113-.154.189v-.189a.36.36,0,0,0,.075-.343c0-.038.041-.075.041-.151l-.117.113c0-.192.038-.305.038-.418-.038-.305-.113-.531-.151-.836h.151c-.038-.038-.075-.075-.075-.113s-.038,0-.075.038a3.086,3.086,0,0,0-.038-.593.2.2,0,0,0-.151-.075c-.305,0-.572-.041-.874-.041h-.686a1.028,1.028,0,0,1-.343-.038.994.994,0,0,0-.572.038.137.137,0,0,0-.038-.113c-.151-.113-.343-.038-.531,0a.408.408,0,0,1-.343-.3c.079,0,.117-.038.154-.038a1.056,1.056,0,0,0-.038-.343.493.493,0,0,0-.038-.23,2.222,2.222,0,0,0-.154-.3.038.038,0,0,0,.038-.038c-.038,0-.075-.038-.113-.079.075-.075.113-.151.192-.226h-.041c.041-.189.041-.38.079-.569a1.509,1.509,0,0,0-.079-.38c.041,0,.041-.075.079-.113a3.505,3.505,0,0,0-.079-.61.274.274,0,0,0,0-.343,3.953,3.953,0,0,1,.154-.494c.113,0,.264-.041.38-.041a2.568,2.568,0,0,0,.95-.113,1.282,1.282,0,0,1,.377-.038,4.9,4.9,0,0,1,.723-.038.13.13,0,0,1,.075.038,1.594,1.594,0,0,1,.836.038,1.453,1.453,0,0,0-.267.154c-.189-.192-.189-.192-.418-.079a.291.291,0,0,1-.113-.038c-.038.038-.075.038-.113.075.151.154.305.079.456.041a.285.285,0,0,1,.151.075.572.572,0,0,1,.267-.038c.075-.038.075-.117.075-.192a4.062,4.062,0,0,1,1.176-.038.113.113,0,0,0,.041.075c0,.038.038.075.075.117.113,0,.226,0,.264-.154a3.705,3.705,0,0,0,.912.038.856.856,0,0,1,.113.192c.041-.075.041-.117.079-.192.151,0,.343-.038.531-.038v.038a.3.3,0,0,1,.3-.038c.079.038.154,0,.23,0a.13.13,0,0,1,.038.075l.038.038.113-.113c.154.038.343.075.531.113a.267.267,0,0,1,.041-.151c.038,0,.151-.038.226-.038v.038c-.038,0-.075.038-.113.075h.038c.113-.038.189-.038.343-.075h.075c.113-.075.226-.038.38.075,0-.038.038-.075.038-.113a2.5,2.5,0,0,1,.531,0,1.135,1.135,0,0,0,.514-.069.13.13,0,0,0,.038-.075h.456v.038c.075,0,.151-.038.226-.038v.038a1.739,1.739,0,0,1,.267.113.343.343,0,0,1,.226.23c.038.151.038.343.079.531v.151a2.47,2.47,0,0,1,0,.912v.987a1.23,1.23,0,0,1-.117.343,2.577,2.577,0,0,1-.075.531c-.113.038-.264.075-.38.113-.075.113-.151.192-.226.305a1.629,1.629,0,0,1-.267.264,4.594,4.594,0,0,1-1.063.154,6.169,6.169,0,0,0-.836,0,1.028,1.028,0,0,1-.343,0c-.23.038-.267.075-.267.343a.134.134,0,0,1-.038.079,3.23,3.23,0,0,0,.151.644.038.038,0,0,0-.038.038c-.075-.075-.151-.113-.226-.189a.137.137,0,0,1-.038.113c.113.075.264.075.3.264-.113,0-.189-.038-.264-.038v.154h.226a1.56,1.56,0,0,1,.038.418c-.038,0-.075-.038-.113-.079v.154c-.038.038-.075.038-.113.075.075.038.113.075.189.113v.569a.285.285,0,0,0-.151.038s0,.041.038.041.075.038.151.038c-.075.038-.113.075-.151.075a.284.284,0,0,0-.151-.075c0,.038.038.075.038.113l-.079.075.117.113v.154a1.24,1.24,0,0,1,.226-.117c-.038.079-.038.117-.075.154s.038.075.075.151c-.038.038-.075.075-.075.113a1.573,1.573,0,0,1,.038.192c-.038,0-.075.038-.113.038.038.075.113.113.151.151v.4c0,.267-.038.531-.038.836a.937.937,0,0,0,.038.3,10.065,10.065,0,0,1-.038,1.066c0,.038.038.075.038.113a1.92,1.92,0,0,0-.075.456v1a6.881,6.881,0,0,1-.075.836.137.137,0,0,0,.038.113c-.038.038-.075.075-.075.113a.9.9,0,0,0,.075.305c-.038.038-.038.075-.075.113a1.921,1.921,0,0,1,.075.456.038.038,0,0,1-.038.038l-.113-.343c-.079.041-.192.117-.305.192.038.038.075.038.113.113a1.333,1.333,0,0,0,.038.343.236.236,0,0,0,.154.038l.113-.113c.151,0-.038.189.113.226-.038.075-.113.192-.151.267s.113.113.189.189v.267c-.075,0-.113.038-.151.038s-.038-.075-.075-.113c0,.075-.038.113-.038.151s.113.038.189.075c0,.038-.038.075-.038.113s-.038.075-.075.117c.075.038.151.113.226.151-.038.038-.075.075-.075.113v.113h.075c-.038.117.075.267-.075.343.038.038.075.113.113.151v.394a.52.52,0,0,1-.151.113l.189.192-.075.075a8.906,8.906,0,0,0,.154.95c.038.038.075.113.113.151.038.117.075.192.113.305a1.371,1.371,0,0,1,.644-.151l.079-.079h.113c-.038,0,0-.038-.038-.075a.308.308,0,0,1-.154-.075,3.017,3.017,0,0,1,1.824.038.921.921,0,0,0,.192.192.322.322,0,0,1,.113.343.5.5,0,0,0,.075.418,1.059,1.059,0,0,1,.192.531c.038.079.113.117.151.192,0,.151-.038.3-.038.418a1.641,1.641,0,0,0,.151.264l-.113.113c.038.154.151.305.113.456s-.151.192-.226.305a.422.422,0,0,1-.192-.038c0,.038-.038.075-.075.151a.236.236,0,0,1,.038.154c-.151.151-.075.343-.075.494-.113.113-.38,0-.38.226a.521.521,0,0,0-.151.113,1.6,1.6,0,0,1-1.063.456c-.079.041-.192.041-.23.079a1.484,1.484,0,0,1-.569.075c-.494.038-1.028.038-1.556.038h-.775c-.305.189-.644.075-.95.151h-.23a.185.185,0,0,1-.113-.038.521.521,0,0,0-.151.113c-.192,0-.38-.038-.569-.038-.038-.038-.038-.113-.075-.226h-1.714a6.21,6.21,0,0,0-.836.038,1.145,1.145,0,0,0-.343.075.607.607,0,0,0-.264-.151c-.038-.038-.038-.075-.075-.154-.079,0-.192-.038-.305-.038.038-.151.075-.3.113-.418a.52.52,0,0,1-.113-.151c.038,0,.075-.038.151-.038.038-.305-.151-.531-.264-.8a.2.2,0,0,0,.075-.151c.075,0,.113.038.151.038a.038.038,0,0,1,.038-.038.521.521,0,0,0-.151-.113c0-.038.038-.075.038-.154h.113v-.435a.987.987,0,0,0,.117-.264c-.154,0-.23-.113-.192-.305a.408.408,0,0,0,.23.075c-.038-.113-.038-.226-.079-.343a.281.281,0,0,1,.041-.154h-.117c-.038-.038-.038-.113-.075-.226a.137.137,0,0,0,.113.038.343.343,0,0,1,.038-.189c.041.038.041.075.079.113.038-.038.075-.075.075-.113s-.038-.079-.075-.154c.038-.038.075-.038.075-.113H375.3a2.394,2.394,0,0,0,.154-.189c0-.079-.038-.117-.038-.192a.137.137,0,0,0,.113.038c0,.075-.038.154-.038.23h.151a.23.23,0,0,0,.038-.154.209.209,0,0,1,.075.154c.267-.038.531-.038.761-.075.113,0,.189-.117.267,0,.113,0,.226-.038.343-.038a.94.94,0,0,0,.154-.192h.038c0,.075-.038.113-.038.192a.38.38,0,0,1,.189-.041c.038-.038.038-.075.075-.113h.38c.038-.038.075-.075.075-.113,0-.189-.038-.38-.038-.531v-1.58l.113-.113a.038.038,0,0,1,.038.024ZM375,29.257c.038.189-.113.075-.154.189l.079.079c.075-.041.189-.079.264-.117a.521.521,0,0,0-.151-.113Zm.343,22.9c.079.151.041.189-.075.264a.233.233,0,0,1,.072-.264Zm.723-4.939c.075,0,.113-.038.226-.075-.038.113-.038.151-.075.189-.113,0-.264.117-.418-.038a.757.757,0,0,0,.23-.151.13.13,0,0,0,.034.075Zm2.012-3.112c.038.038.038.075.075.113-.075,0-.113.038-.226.075.038-.113.075-.151.075-.226a.925.925,0,0,1-.075-.305c.075-.038.113.038.189.113,0,.086-.041.151-.041.23Zm-.038.72a1.119,1.119,0,0,1-.075-.38l.113-.113h.038c0,.038-.038.075-.038.113a1.551,1.551,0,0,1,0,.418.038.038,0,0,1-.041-.038Zm.38-6.8-.113.113c.038.038.038.113.075.189a.284.284,0,0,1,.151-.038v-.264Zm.075,2.619a2.5,2.5,0,0,1,0,.531,1.258,1.258,0,0,0,0,.648c.038.038.113.038.154.075.038-.151,0-.343.038-.456a.531.531,0,0,0,0-.343c0-.113-.038-.189.038-.226,0-.075-.038-.075-.038-.117l.113-.343c.038-.075.038-.117-.038-.154a.583.583,0,0,0-.23.038c0,.12-.041.233-.041.346Zm.075-1.1c.079.075.154.038.23,0v-.192c.038,0,.075-.038.113-.075a.038.038,0,0,1-.038-.038c-.075.038-.113.075-.189.113s-.079.117-.12.192Zm1.179,6.571c-.038-.075-.151.038-.151-.113h.3v-.038h-.264c-.038-.041-.079-.041-.117-.079-.3.079-.3.079-.377,0,.075,0,.113-.038.189-.038a3.463,3.463,0,0,0-.343-.113.377.377,0,0,0-.189.151c.038.038.038.079.075.117-.038.113-.075.189-.113.3a.737.737,0,0,0,.264-.038.521.521,0,0,1-.151-.113c.189.038.151.226.305.267h.075a2.238,2.238,0,0,1,.3.151c.041-.038.041-.075.079-.151h-.117c-.038-.079-.038-.154-.075-.23.113-.075.23.038.305-.075a.13.13,0,0,1,.038.075c.151.038.267.038.38.075a.038.038,0,0,1,.038-.038c-.038-.038-.075-.038-.075-.075a.13.13,0,0,1,.038-.075c-.038-.038-.113-.038-.154-.075.041-.038.079-.038.117-.079s.189.079.189-.113c-.113.113-.189,0-.264-.075a.538.538,0,0,1-.041.267c-.034.113-.154.113-.267.113Zm-.761-3.267h.075a.288.288,0,0,1,.343.113.137.137,0,0,0,.113.038c.038.038.038,0,.079,0-.041,0-.079-.038-.117-.075a.624.624,0,0,1,.154-.189c-.038-.038-.079-.079-.117-.079a.13.13,0,0,0-.113.041.765.765,0,0,1-.038-.267,2.28,2.28,0,0,1-.267.075l.154.151c-.117.041-.233.041-.271.192Zm.113,3.38a.13.13,0,0,0,.041-.113c.075-.038.113-.038.189-.075,0,.038.038.075.038.113a.116.116,0,0,1-.075.038,1.637,1.637,0,0,1-.038.189c-.038,0-.038,0-.038-.038Zm1.292-3.723c.075,0,.113-.038.192-.075-.079-.038-.117-.075-.117-.113-.075.038-.151.038-.226.075-.075.113.113.113.113.226,0-.031.034-.075.034-.113Zm.192,3.61a.946.946,0,0,0,.264-.151c-.075-.117-.038-.192.075-.267a.116.116,0,0,0-.075-.038c-.038-.075-.075-.113-.113-.189,0,.113-.038.151-.038.264-.075-.038-.075-.075-.113-.113a1.942,1.942,0,0,0-.267.151h.189c0,.038.041.075.041.113.075,0,.113,0,.151-.038a.038.038,0,0,0,.038.038c-.075.079-.113.154-.189.192a.038.038,0,0,0,.034.038Zm.456-3.267a4.14,4.14,0,0,0,.038.686,5.637,5.637,0,0,0,.038.8v.494a2.333,2.333,0,0,1,.038.723c-.038.038,0,.075,0,.113a4.143,4.143,0,0,0,.038.686c.038.192.075.343.113.531a.391.391,0,0,0,.192.041c.113-.079.226-.117.343-.192a.956.956,0,0,1-.038-.95c-.038-.226-.075-.38-.113-.569,0-.038-.038-.075-.075-.113h.079v-.343a2.181,2.181,0,0,1-.038-.494.929.929,0,0,0,0-.456.486.486,0,0,1-.038-.23.511.511,0,0,0-.267-.531.425.425,0,0,0-.189-.38c-.048.072-.123.147-.123.185Zm.531-1.556a.288.288,0,0,0-.192-.038c.038.075-.038.189.117.189l.113-.113c0-.038,0-.038-.041-.038Zm.147-5.9a.648.648,0,0,0-.075-.531v.343a2.229,2.229,0,0,0-.151.226h.113c-.113.113-.075.192.038.305a.13.13,0,0,0,.075-.038c.038-.117-.038-.192-.113-.267A.185.185,0,0,1,381.726,35.4Zm-.226,4.216c0,.038.038.075.113.075a.48.48,0,0,1,.226.038c0-.151.154-.3,0-.456-.113.13-.141.356-.339.356Zm.038,2.962c.038-.038.075-.075.075-.113a.13.13,0,0,0-.038-.075c0-.038.038-.113.038-.151s-.075-.079-.113-.079.038.079.038.041a1.417,1.417,0,0,0-.038.377Zm0-8.47a.559.559,0,0,1,.075.267c-.075.151-.075.151-.038.264a1.254,1.254,0,0,1,.226-.113.535.535,0,0,1-.075-.226.3.3,0,0,1,.038-.154c-.075-.038-.113-.075-.189-.075Zm.3,7.884V41.91a1.837,1.837,0,0,0-.264-.23c.038.079.038.154.075.192a.818.818,0,0,0,.189.147Zm.075-.38a.48.48,0,0,0-.038-.226.565.565,0,0,0-.075-.23.415.415,0,0,0,.038.572c.038-.01.038-.048.075-.086Zm.154,3.609h-.027a.841.841,0,0,0-.038.305c.075.038.113.038.189.075,0-.038,0-.038.038-.075-.038,0-.075-.038-.113-.038a1.8,1.8,0,0,1-.048-.237Zm.874,1.556a.038.038,0,0,0,.038-.038.226.226,0,0,0,.151-.038c.038.038.038.075.075.113-.113.038-.189.038-.3.079.038-.048.038-.048.038-.086Zm.8.038h.494c.154,0,.305.079.456-.075a1.371,1.371,0,0,0-.871-.075c0,.069-.041.106-.062.182ZM385.144,30.1c-.038.075-.075.113-.113.189.038.038.038.075.075.113.154-.12.154-.12.038-.271Z" transform="translate(-216.228 -11.107)"/></g></svg>